:version 1.10
:name ASF
:units
  mass 1
  length 1
  angle deg
:documentation
  ASF file generated by Kaydara
:root
  axis xyz
  order  tx ty tz rx ry rz
  position 0 0 0
  orientation 0 0 0
:bonedata
  begin
    id 1
    name abdomenDummy
    direction 1 -1.27917e-005 -1.26829e-007
    length 1.79048
    axis 0 0 0 xyz
  end
  begin
    id 2
    name abdomen
    direction 0.987238 0.159249 -9.68575e-008
    length 8.61378
    axis 2.73208e-005 5.54953e-006 9.16328 xyz
    dof rx ry rz
  end
  begin
    id 3
    name chest
    direction 0 0 0
    length 0
    axis 2.65071e-005 8.63688e-006 2.59796 xyz
    dof rx ry rz
  end
  begin
    id 4
    name neckDummyDummy
    direction 0.998972 0.0453274 -1.50742e-007
    length 9.56202
    axis 2.65071e-005 8.63688e-006 2.59796 xyz
  end
  begin
    id 5
    name neckDummy
    direction 0.99977 0.0214525 -1.61748e-007
    length 1.93574
    axis 2.62932e-005 9.26758e-006 1.22924 xyz
    dof rx ry rz
  end
  begin
    id 6
    name neck
    direction 0.99928 -0.0379406 -1.88707e-007
    length 3.70367
    axis 2.56966e-005 1.08122e-005 -2.17436 xyz
    dof rx ry rz
  end
  begin
    id 7
    name head
    direction 0.992648 -0.121037 -2.25408e-007
    length 6.35158
    axis 2.47068e-005 1.29149e-005 -6.95196 xyz
    dof rx ry rz
  end
  begin
    id 8
    name figureHair
    direction -0.86681 -0.498639 -7.83376e-008
    length 8.29884
    axis -2.7515e-005 4.48842e-006 -150.09 xyz
    dof rx ry rz
  end
  begin
    id 9
    name lCollarDummy
    direction 0.994611 0.0451299 -0.0933417
    length 9.60395
    axis 2.65071e-005 8.63688e-006 2.59796 xyz
  end
  begin
    id 10
    name lCollar
    direction 0.0384146 0.00127577 -0.999261
    length 6.95318
    axis 90.4899 87.7973 1.90202 xyz
    dof rx ry rz
  end
  begin
    id 11
    name lShldr
    direction -0.030648 0.0920515 -0.995282
    length 9.61158
    axis -161.793 84.4324 108.415 xyz
    dof rx ry rz
  end
  begin
    id 12
    name lForeArm
    direction 0.000163956 -0.0977586 -0.99521
    length 8.6068
    axis 0.134773 84.3899 -89.8525 xyz
    dof rx ry rz
  end
  begin
    id 13
    name lHand
    direction -0.0190533 -0.1444 -0.989336
    length 7.61479
    axis -7.3729 81.6249 -97.517 xyz
    dof rx ry rz
  end
  begin
    id 14
    name rCollarDummy
    direction 0.994871 0.0442627 0.0909555
    length 9.60761
    axis 2.65071e-005 8.63688e-006 2.59796 xyz
  end
  begin
    id 15
    name rCollar
    direction 0.0334251 -4.74072e-007 0.999441
    length 6.97058
    axis -178.152 -88.0845 -0.000674207 xyz
    dof rx ry rz
  end
  begin
    id 16
    name rShldr
    direction -0.026922 0.0719509 0.997045
    length 9.60913
    axis 71.2822 -85.594 110.514 xyz
    dof rx ry rz
  end
  begin
    id 17
    name rForeArm
    direction 0.00134679 -0.118986 0.992895
    length 8.57176
    axis -88.7923 -83.1659 -89.3516 xyz
    dof rx ry rz
  end
  begin
    id 18
    name rHand
    direction -0.0185183 -0.0768601 0.99687
    length 7.69687
    axis -74.5596 -85.4655 -103.546 xyz
    dof rx ry rz
  end
  begin
    id 19
    name lThighDummy
    direction -0.236086 -0.0385456 -0.970967
    length 4.99155
    axis 0 0 0 xyz
  end
  begin
    id 20
    name lThigh
    direction -0.993968 0.0148998 -0.108653
    length 13.572
    axis -91.4001 6.23768 179.141 xyz
    dof rx ry rz
  end
  begin
    id 21
    name lShin
    direction -0.992341 0.0904576 -0.0841193
    length 18.5862
    axis -91.4558 4.82538 174.792 xyz
    dof rx ry rz
  end
  begin
    id 22
    name lFoot
    direction 0.0209381 -0.999771 -0.00453005
    length 8.44474
    axis 4.86759 0.259522 -88.8001 xyz
    dof rx ry rz
  end
  begin
    id 23
    name rThighDummy
    direction -0.236086 -0.0385456 0.970967
    length 4.99155
    axis 0 0 0 xyz
  end
  begin
    id 24
    name rThigh
    direction -0.993968 0.0148995 0.108653
    length 13.5721
    axis -89.7059 -6.2377 179.141 xyz
    dof rx ry rz
  end
  begin
    id 25
    name rShin
    direction -0.9925 0.0899962 0.0827255
    length 18.6716
    axis -89.2745 -4.74775 174.819 xyz
    dof rx ry rz
  end
  begin
    id 26
    name rFoot
    direction 0.0301721 -0.999545 9.70865e-005
    length 8.45013
    axis -2.50066e-005 -0.00555246 -88.271 xyz
    dof rx ry rz
  end
:hierarchy
  begin
    root abdomenDummy lThighDummy rThighDummy
    abdomenDummy abdomen
    abdomen chest
    chest neckDummyDummy lCollarDummy rCollarDummy
    neckDummyDummy neckDummy
    neckDummy neck
    neck head
    head figureHair
    lCollarDummy lCollar
    lCollar lShldr
    lShldr lForeArm
    lForeArm lHand
    rCollarDummy rCollar
    rCollar rShldr
    rShldr rForeArm
    rForeArm rHand
    lThighDummy lThigh
    lThigh lShin
    lShin lFoot
    rThighDummy rThigh
    rThigh rShin
    rShin rFoot
  end

:SAMPLES-PER-SECOND 25
:FULLY-SPECIFIED
:DEGREES
95
root  -25.126 35.2728 8.8642 -167.037 4.17507 83.8826
abdomen  6.68854 -19.1361 -10.2821
chest  12.8029 27.4462 -1.11616
neckDummy  3.03321e-021 0 6.73878e-016
neck  0.163461 10.384 5.04239
head  -3.20026 -2.97288 -5.08484
figureHair  0 0 -1.04948e-014
lCollar  -3.38943e-016 -6.49156e-016 -7.51406e-014
lShldr  -8.93771 -24.8849 -51.0271
lForeArm  41.1542 -65.0653 3.15285
lHand  0.254698 0.195082 5.2986
rCollar  2.67893e-016 -5.20816e-014 1.63997e-015
rShldr  29.0049 -28.168 93.9115
rForeArm  -23.567 0.982896 28.8109
rHand  0.222932 -19.9171 3.39535
lThigh  -12.9367 -21.3479 -14.5156
lShin  -3.62462 24.6898 2.14462
lFoot  18.5669 -2.06075 -3.70614
rThigh  20.4809 6.56932 -6.69399
rShin  -3.90432 45.0253 -2.23374
rFoot  10.8252 -0.451601 -7.67107
96
root  -26.3757 35.2945 9.33224 -166.853 5.61598 82.8098
abdomen  6.43678 -18.7037 -10.7918
chest  12.0362 27.5708 -4.1202
neckDummy  3.03321e-021 0 6.73878e-016
neck  2.59307 13.3525 7.15592
head  -2.07252 -3.49136 -5.47213
figureHair  0 0 -1.04948e-014
lCollar  -3.38943e-016 -6.49156e-016 -7.51406e-014
lShldr  -3.92987 -25.7728 -55.145
lForeArm  40.7876 -58.4894 2.03977
lHand  0.254698 0.195082 5.2986
rCollar  2.67893e-016 -5.20816e-014 1.63997e-015
rShldr  29.9915 -20.5985 96.7547
rForeArm  -22.5939 1.00372 26.1734
rHand  -0.141548 -21.5428 5.1794
lThigh  -13.3815 -17.7793 -15.7172
lShin  -3.66807 25.2227 2.03336
lFoot  18.5518 -1.88725 -0.896361
rThigh  15.1432 -3.68975 -9.40617
rShin  -1.70696 60.0325 -2.78607
rFoot  6.57392 -1.57679 -18.3032
97
root  -27.5551 35.4907 9.79167 -166.388 6.25398 82.0244
abdomen  5.92352 -19.23 -11.2333
chest  11.088 27.9121 -6.54493
neckDummy  3.03321e-021 0 6.73878e-016
neck  4.5742 15.2063 7.81062
head  -0.898744 -3.05352 -5.48145
figureHair  0 0 -1.04948e-014
lCollar  -3.38943e-016 -6.49156e-016 -7.51406e-014
lShldr  2.29984 -26.2046 -58.9267
lForeArm  40.9698 -47.9734 0.935639
lHand  0.254698 0.195082 5.2986
rCollar  2.67893e-016 -5.20816e-014 1.63997e-015
rShldr  32.4523 -11.0134 98.9055
rForeArm  -16.1883 1.11242 21.0492
rHand  0.191965 -22.0713 3.59648
lThigh  -14.0452 -13.5872 -16.4179
lShin  -2.80232 23.6936 1.98743
lFoot  18.8764 -2.15799 0.203487
rThigh  11.9368 -13.6598 -10.1301
rShin  -0.766394 70.1789 -3.56835
rFoot  2.76306 -1.55231 -21.0052
98
root  -28.6866 35.8329 10.213 -165.458 5.95992 81.5345
abdomen  5.3852 -20.3907 -11.3959
chest  9.97416 27.7403 -8.70682
neckDummy  3.03321e-021 0 6.73878e-016
neck  6.26157 16.0425 7.62422
head  0.457524 -3.15984 -6.0829
figureHair  0 0 -1.04948e-014
lCollar  -3.38943e-016 -6.49156e-016 -7.51406e-014
lShldr  11.7254 -26.7052 -62.5436
lForeArm  39.0249 -33.6932 0.0874937
lHand  0.254698 0.195082 5.2986
rCollar  2.67893e-016 -5.20816e-014 1.63997e-015
rShldr  35.303 -0.645279 98.9102
rForeArm  -8.93647 2.9987 14.5319
rHand  0.255416 -22.3709 3.35479
lThigh  -13.3174 -9.24339 -16.2598
lShin  -2.66581 20.9342 1.51644
lFoot  18.0457 -2.23427 1.28272
rThigh  9.43904 -21.9779 -8.58066
rShin  1.08887 73.5779 -4.08327
rFoot  0.670904 -1.53286 -18.9026
99
root  -29.8457 36.1547 10.5991 -164.418 5.2565 81.2431
abdomen  5.23028 -20.4145 -11.293
chest  8.8192 25.4194 -11.0066
neckDummy  3.03321e-021 0 6.73878e-016
neck  8.03678 17.6032 8.09445
head  1.53922 -4.46391 -6.93493
figureHair  0 0 -1.04948e-014
lCollar  -3.38943e-016 -6.49156e-016 -7.51406e-014
lShldr  23.6019 -26.0246 -66.4857
lForeArm  33.0575 -19.1013 -1.50231
lHand  0.254698 0.195082 5.2986
rCollar  2.67893e-016 -5.20816e-014 1.63997e-015
rShldr  45.3657 10.1106 96.8499
rForeArm  -19.1557 9.43393 6.57251
rHand  0.136917 -19.0396 3.53576
lThigh  -10.0575 -4.93591 -15.4486
lShin  -5.19755 17.644 -0.395837
lFoot  17.3728 -2.26366 2.0181
rThigh  5.59211 -28.4452 -5.03244
rShin  3.44897 70.991 -3.75447
rFoot  -1.30804 -1.39759 -16.5266
100
root  -31.0884 36.3788 10.9863 -162.657 4.47902 80.9662
abdomen  4.97191 -19.0767 -11.4545
chest  7.46165 21.4373 -12.9143
neckDummy  3.03321e-021 0 6.73878e-016
neck  9.84079 19.1073 10.5776
head  2.32527 -5.56352 -8.25944
figureHair  0 0 -1.04948e-014
lCollar  -3.38943e-016 -6.49156e-016 -7.51406e-014
lShldr  24.6092 -22.5882 -70.5542
lForeArm  36.3651 -8.36027 -7.7626
lHand  0.254698 0.195082 5.2986
rCollar  2.67893e-016 -5.20816e-014 1.63997e-015
rShldr  51.8588 22.6605 92.0604
rForeArm  -32.175 13.1182 -0.727276
rHand  0.749227 -14.067 -0.892263
lThigh  -5.28841 -1.0768 -14.4475
lShin  -8.35167 15.0708 -2.23559
lFoot  17.4329 -2.41427 2.8921
rThigh  1.71697 -31.9261 -1.01343
rShin  4.71993 63.3121 -3.01532
rFoot  -3.41869 -1.20529 -14.3324
101
root  -32.4255 36.4324 11.4022 -159.614 3.97598 81.0008
abdomen  4.68181 -16.9776 -12.1656
chest  6.30862 17.3999 -13.7632
neckDummy  3.03321e-021 0 6.73878e-016
neck  10.8908 19.0845 14.6278
head  2.64622 -5.39226 -10.1256
figureHair  0 0 -1.04948e-014
lCollar  -3.38943e-016 -6.49156e-016 -7.51406e-014
lShldr  20.7453 -16.2949 -74.4296
lForeArm  44.5198 -2.16962 -10.8625
lHand  0.254698 0.195082 5.2986
rCollar  2.67893e-016 -5.20816e-014 1.63997e-015
rShldr  49.8571 38.4957 81.8672
rForeArm  -35.4309 13.0662 -2.64557
rHand  0.900063 -14.551 -1.86491
lThigh  -2.61342 1.42443 -13.7023
lShin  -8.19497 14.7306 -2.38189
lFoot  16.897 -2.66063 5.02238
rThigh  0.0214869 -31.7989 1.00455
rShin  4.09448 50.4032 -2.36993
rFoot  -2.61549 -0.960119 -12.0174
102
root  -33.8926 36.3184 11.9161 -155.741 3.81122 82.2672
abdomen  4.69626 -14.3596 -12.5235
chest  5.90026 13.5274 -13.446
neckDummy  3.03321e-021 0 6.73878e-016
neck  10.8093 18.3255 18.9982
head  2.12992 -4.67221 -11.9587
figureHair  0 0 -1.04948e-014
lCollar  -3.38943e-016 -6.49156e-016 -7.51406e-014
lShldr  21.5181 -7.69164 -77.0678
lForeArm  47.7077 -1.95805 -10.463
lHand  0.254698 0.195082 5.2986
rCollar  2.67893e-016 -5.20816e-014 1.63997e-015
rShldr  38.2058 56.446 59.8229
rForeArm  -31.657 10.8144 -0.186495
rHand  0.901456 -14.7373 -1.81624
lThigh  -1.44983 2.65654 -13.4701
lShin  -5.64439 15.4451 -1.86273
lFoot  16.0503 -2.87525 7.46624
rThigh  2.36037 -29.7819 0.231215
rShin  1.92252 33.8168 -1.96483
rFoot  -1.24345 -0.830046 -10.4646
